<svg xmlns="http://www.w3.org/2000/svg" viewBox="0 0 512 512">
  <defs>
    <linearGradient id="bg" x1="74" y1="52" x2="438" y2="460" gradientUnits="userSpaceOnUse">
      <stop stop-color="#3159c9"/>
      <stop offset=".48" stop-color="#123a63"/>
      <stop offset="1" stop-color="#071b3d"/>
    </linearGradient>
    <linearGradient id="ring" x1="120" y1="94" x2="396" y2="424" gradientUnits="userSpaceOnUse">
      <stop stop-color="#ffffff"/>
      <stop offset=".48" stop-color="#dcecff"/>
      <stop offset="1" stop-color="#8ec5ff"/>
    </linearGradient>
    <filter id="shadow" x="42" y="38" width="428" height="436" filterUnits="userSpaceOnUse" color-interpolation-filters="sRGB">
      <feDropShadow dx="0" dy="18" stdDeviation="22" flood-color="#071b3d" flood-opacity=".28"/>
    </filter>
  </defs>
  <rect width="512" height="512" rx="120" fill="#eef5ff"/>
  <g filter="url(#shadow)">
    <rect x="72" y="64" width="368" height="384" rx="94" fill="url(#bg)"/>
  </g>
  <circle cx="256" cy="256" r="148" fill="none" stroke="url(#ring)" stroke-width="14" opacity=".92"/>
  <circle cx="256" cy="256" r="112" fill="none" stroke="#ffffff" stroke-width="2" opacity=".35"/>
  <path d="M174 360V153h96c46 0 78 29 78 70 0 30-17 54-44 64l53 73h-58l-46-65h-27v65h-52Zm52-109h39c18 0 31-11 31-28s-13-27-31-27h-39v55Z" fill="#ffffff"/>
  <path d="M154 385h204" stroke="#8ec5ff" stroke-width="10" stroke-linecap="round" opacity=".86"/>
  <path d="M256 93l8 17 18 2-13 13 3 18-16-9-16 9 3-18-13-13 18-2 8-17Z" fill="#ffffff" opacity=".88"/>
</svg>
